<svg id="logosandtypes_com" data-name="logosandtypes com" xmlns="http://www.w3.org/2000/svg" viewBox="0 0 150 150"><defs><style>.cls-1{fill:none;}.cls-2{fill:#e12a27;}</style></defs><path class="cls-1" d="M0,0H150V150H0Z" transform="translate(0 0)"/><path class="cls-2" d="M82.61,92.27l-7.55-14-7.84,14M32.3,123.89l68.64,0c-1.73-1.19-3.9-5.81-3.9-5.81l-64.26,0c-6.6-.47-7.49-10.47.92-10.24l57.7,0-3.3-6H31.9C18.07,102.58,17.59,122.75,32.3,123.89Zm95.3-16.48L92.74,44.57C92.66,47.39,90,51.48,90,51.48l32.34,58.29c2.79,6-5.56,11.65-9.44,4.18L84.36,62,80.91,68.1l27.77,50.27C115.92,130.19,133.74,120.85,127.6,107.41ZM65.81,29.79,30.56,93.28c2.4-1.22,6.93-.85,6.93-.85L70.58,33c3.63-5.53,12.82-1.39,8.51,5.84l-30,53.42h6.8L85.07,40.15C91.3,27.76,74,17.49,65.81,29.79Zm71.34,75.6c6.72,13.7-4.25,28.44-15.88,28.5H30.21l-.39,0C14.3,133.83,7,116.56,12.62,106.21L59.08,22.77C66.8,11,84.54,11.67,91.66,22.9l44.07,79.83Z" transform="translate(0 0)"/></svg>